<svg width="121" height="121" viewBox="0 0 121 121" fill="none" xmlns="http://www.w3.org/2000/svg">
<g filter="url(#filter0_d_0_42)">
<circle cx="60.7572" cy="48.2657" r="30" fill="white"/>
</g>
<path d="M68.4655 51.2403C67.6258 51.0597 66.9616 51.4496 66.3735 51.7901C65.7711 52.1408 64.6258 53.0699 63.9693 52.8322C60.6082 51.4483 57.4471 48.5064 56.0786 45.1318C55.8375 44.4613 56.7622 43.3088 57.1104 42.6993C57.4484 42.1094 57.8301 41.4389 57.656 40.593C57.4987 39.8328 55.4634 37.2431 54.7437 36.5349C54.2691 36.0671 53.7829 35.8098 53.2837 35.7683C51.4071 35.6877 49.3113 38.1917 48.9437 38.7907C48.0228 40.068 48.028 41.7677 48.9592 43.8285C51.2034 49.3641 59.6912 57.7179 65.2475 60.0464C66.2728 60.5259 67.2104 60.7663 68.0527 60.7663C68.8768 60.7663 69.6107 60.5363 70.2415 60.0803C70.7173 59.8061 73.324 57.6062 73.2556 55.6792C73.2143 55.1879 72.9577 54.6968 72.496 54.2212C71.793 53.4948 69.22 51.3989 68.4655 51.2403Z" fill="#64646A"/>
<defs>
<filter id="filter0_d_0_42" x="0.757202" y="0.265747" width="120" height="120" filterUnits="userSpaceOnUse" color-interpolation-filters="sRGB">
<feFlood flood-opacity="0" result="BackgroundImageFix"/>
<feColorMatrix in="SourceAlpha" type="matrix" values="0 0 0 0 0 0 0 0 0 0 0 0 0 0 0 0 0 0 127 0" result="hardAlpha"/>
<feOffset dy="12"/>
<feGaussianBlur stdDeviation="15"/>
<feComposite in2="hardAlpha" operator="out"/>
<feColorMatrix type="matrix" values="0 0 0 0 0.802604 0 0 0 0 0.820052 0 0 0 0 0.8375 0 0 0 0.28 0"/>
<feBlend mode="normal" in2="BackgroundImageFix" result="effect1_dropShadow_0_42"/>
<feBlend mode="normal" in="SourceGraphic" in2="effect1_dropShadow_0_42" result="shape"/>
</filter>
</defs>
</svg>
