<svg width="151" height="150" viewBox="0 0 151 150" fill="none" xmlns="http://www.w3.org/2000/svg">
<g clip-path="url(#clip0_0_194)">
<path d="M45.742 104.313C41.7654 102.038 39.0784 97.7634 39.0784 92.8711C39.0784 72.678 55.5482 56.25 75.7927 56.25H90.9224L91.6349 44.5312H5.90704L12.0647 145.871C12.2058 148.191 14.1322 150 16.4624 150H43.4956C40.7236 146.325 39.0784 141.759 39.0784 136.816C39.0784 131.118 42.7223 126.254 47.8072 124.417C46.0048 121.66 44.9527 118.373 44.9527 114.844C44.9527 111.311 46.0071 108.021 47.8129 105.262C46.3765 104.939 45.5791 104.622 45.742 104.313Z" fill="#64646A"/>
<path d="M48.7661 35.7433C48.7696 35.7433 48.773 35.7422 48.7764 35.7422H92.8278C95.2613 35.7422 97.2335 33.7749 97.2335 31.3477C97.2335 28.9204 95.2613 26.9531 92.8278 26.9531H56.9041L68.78 8.78906H84.0164C86.4499 8.78906 88.4221 6.82182 88.4221 4.39453C88.4221 1.96724 86.4499 0 84.0164 0H66.3936C64.9043 0 63.5161 0.749588 62.7038 1.99356L46.3843 26.9531H4.71357C2.28011 26.9531 0.307861 28.9204 0.307861 31.3477C0.307861 33.7749 2.28011 35.7422 4.71357 35.7422H48.7501C48.7558 35.7422 48.7615 35.7433 48.7661 35.7433Z" fill="#64646A"/>
<path d="M47.8896 92.8711C47.8896 95.2984 49.8618 97.2656 52.2953 97.2656H146.284C148.717 97.2656 150.69 95.2984 150.69 92.8711C150.69 77.5246 138.172 65.0391 122.787 65.0391H75.7924C60.4069 65.0391 47.8896 77.5246 47.8896 92.8711Z" fill="#64646A"/>
<path d="M62.5753 106.055C57.7083 106.055 53.7639 109.989 53.7639 114.844C53.7639 119.698 57.7083 123.633 62.5753 123.633H136.004C140.871 123.633 144.815 119.698 144.815 114.844C144.815 109.989 140.871 106.055 136.004 106.055H62.5753Z" fill="#64646A"/>
<path d="M146.284 132.422H52.2953C49.8618 132.422 47.8896 134.389 47.8896 136.816C47.8896 144.086 53.8189 150 61.1067 150H137.472C144.76 150 150.69 144.086 150.69 136.816C150.69 134.389 148.717 132.422 146.284 132.422Z" fill="#64646A"/>
</g>
<defs>
<clipPath id="clip0_0_194">
<rect width="150.382" height="150" fill="white" transform="translate(0.307861)"/>
</clipPath>
</defs>
</svg>
