<svg width="20" height="21" viewBox="0 0 20 21" fill="none" xmlns="http://www.w3.org/2000/svg">
<path d="M19.947 7.44902C19.818 7.07102 19.477 6.80402 19.079 6.77302L13.378 6.32002L10.911 0.85902C10.75 0.50002 10.393 0.27002 9.99998 0.27002C9.60698 0.27002 9.24998 0.50002 9.08898 0.85802L6.62198 6.32002L0.920979 6.77302C0.529979 6.80402 0.192979 7.06102 0.0599788 7.43002C-0.0730212 7.79902 0.0209789 8.21202 0.301979 8.48602L4.51498 12.593L3.02498 19.045C2.93298 19.444 3.09398 19.859 3.43098 20.092C3.60298 20.21 3.80098 20.27 3.99998 20.27C4.19298 20.27 4.38698 20.214 4.55498 20.102L9.99998 16.472L15.445 20.102C15.793 20.334 16.25 20.325 16.59 20.078C16.928 19.831 17.077 19.398 16.962 18.996L15.133 12.596L19.669 8.51402C19.966 8.24602 20.075 7.82802 19.947 7.44902Z" fill="#FFB700"/>
</svg>
