<svg width="121" height="121" viewBox="0 0 121 121" fill="none" xmlns="http://www.w3.org/2000/svg">
<g filter="url(#filter0_d_0_52)">
<circle cx="60.7572" cy="48.2657" r="30" fill="white"/>
</g>
<path d="M71.9409 43.6469C71.9272 42.7007 71.7522 41.7619 71.4172 40.8769C70.8309 39.3657 69.6372 38.1707 68.1259 37.5857C67.2522 37.2569 66.3284 37.0807 65.3934 37.0607C64.1909 37.0069 63.8097 36.9919 60.7572 36.9919C57.7047 36.9919 57.3134 36.9919 56.1197 37.0607C55.1859 37.0807 54.2622 37.2569 53.3884 37.5857C51.8772 38.1707 50.6822 39.3657 50.0972 40.8769C49.7684 41.7507 49.5909 42.6744 49.5734 43.6082C49.5197 44.8119 49.5034 45.1932 49.5034 48.2457C49.5034 51.2982 49.5034 51.6882 49.5734 52.8832C49.5922 53.8182 49.7684 54.7407 50.0972 55.6169C50.6834 57.1269 51.8772 58.3219 53.3897 58.9069C54.2597 59.2469 55.1834 59.4394 56.1209 59.4694C57.3247 59.5232 57.7059 59.5394 60.7584 59.5394C63.8109 59.5394 64.2022 59.5394 65.3959 59.4694C66.3297 59.4507 67.2534 59.2744 68.1284 58.9457C69.6397 58.3594 70.8335 57.1644 71.4197 55.6544C71.7484 54.7794 71.9247 53.8569 71.9434 52.9207C71.9972 51.7182 72.0134 51.3369 72.0134 48.2832C72.0109 45.2307 72.011 44.8432 71.9409 43.6469ZM60.7497 54.0182C57.5572 54.0182 54.9709 51.4319 54.9709 48.2394C54.9709 45.0469 57.5572 42.4607 60.7497 42.4607C63.9397 42.4607 66.5285 45.0469 66.5285 48.2394C66.5285 51.4319 63.9397 54.0182 60.7497 54.0182ZM66.7584 43.5944C66.0122 43.5944 65.4109 42.9919 65.4109 42.2469C65.4109 41.5019 66.0122 40.8994 66.7584 40.8994C67.5022 40.8994 68.1047 41.5019 68.1047 42.2469C68.1047 42.9919 67.5022 43.5944 66.7584 43.5944Z" fill="#64646A"/>
<path d="M60.7497 51.9932C62.8228 51.9932 64.5034 50.3126 64.5034 48.2395C64.5034 46.1663 62.8228 44.4857 60.7497 44.4857C58.6766 44.4857 56.9959 46.1663 56.9959 48.2395C56.9959 50.3126 58.6766 51.9932 60.7497 51.9932Z" fill="#64646A"/>
<defs>
<filter id="filter0_d_0_52" x="0.757202" y="0.265747" width="120" height="120" filterUnits="userSpaceOnUse" color-interpolation-filters="sRGB">
<feFlood flood-opacity="0" result="BackgroundImageFix"/>
<feColorMatrix in="SourceAlpha" type="matrix" values="0 0 0 0 0 0 0 0 0 0 0 0 0 0 0 0 0 0 127 0" result="hardAlpha"/>
<feOffset dy="12"/>
<feGaussianBlur stdDeviation="15"/>
<feComposite in2="hardAlpha" operator="out"/>
<feColorMatrix type="matrix" values="0 0 0 0 0.802604 0 0 0 0 0.820052 0 0 0 0 0.8375 0 0 0 0.28 0"/>
<feBlend mode="normal" in2="BackgroundImageFix" result="effect1_dropShadow_0_52"/>
<feBlend mode="normal" in="SourceGraphic" in2="effect1_dropShadow_0_52" result="shape"/>
</filter>
</defs>
</svg>
