<svg width="121" height="121" viewBox="0 0 121 121" fill="none" xmlns="http://www.w3.org/2000/svg">
<g filter="url(#filter0_d_0_25)">
<circle cx="60.7572" cy="48.2657" r="30" fill="white"/>
</g>
<g clip-path="url(#clip0_0_25)">
<path d="M64.9001 49.4279L62.5551 51.7808C61.6041 52.7351 59.9309 52.7557 58.9594 51.7808L56.6142 49.4279L48.1914 57.8779C48.505 58.0229 48.8506 58.1094 49.2181 58.1094H72.2963C72.6638 58.1094 73.0093 58.023 73.3228 57.878L64.9001 49.4279Z" fill="#64646A"/>
<path d="M72.2963 38.422H49.2182C48.8507 38.422 48.505 38.5085 48.1916 38.6535L57.1919 47.6837C57.1925 47.6843 57.1932 47.6844 57.1938 47.685C57.1944 47.6856 57.1945 47.6864 57.1945 47.6864L60.121 50.6226C60.4318 50.9334 61.0827 50.9334 61.3936 50.6226L64.3195 47.6869C64.3195 47.6869 64.3202 47.6856 64.3208 47.685C64.3208 47.685 64.3221 47.6843 64.3227 47.6837L73.3228 38.6534C73.0093 38.5084 72.6638 38.422 72.2963 38.422Z" fill="#64646A"/>
<path d="M47.0189 39.8008C46.8567 40.1288 46.7572 40.4929 46.7572 40.8829V55.6486C46.7572 56.0386 46.8566 56.4027 47.0189 56.7307L55.4562 48.266L47.0189 39.8008Z" fill="#64646A"/>
<path d="M74.4955 39.8007L66.0582 48.266L74.4955 56.7308C74.6577 56.4028 74.7572 56.0387 74.7572 55.6486V40.8829C74.7572 40.4928 74.6577 40.1287 74.4955 39.8007Z" fill="#64646A"/>
</g>
<defs>
<filter id="filter0_d_0_25" x="0.757202" y="0.265747" width="120" height="120" filterUnits="userSpaceOnUse" color-interpolation-filters="sRGB">
<feFlood flood-opacity="0" result="BackgroundImageFix"/>
<feColorMatrix in="SourceAlpha" type="matrix" values="0 0 0 0 0 0 0 0 0 0 0 0 0 0 0 0 0 0 127 0" result="hardAlpha"/>
<feOffset dy="12"/>
<feGaussianBlur stdDeviation="15"/>
<feComposite in2="hardAlpha" operator="out"/>
<feColorMatrix type="matrix" values="0 0 0 0 0.802604 0 0 0 0 0.820052 0 0 0 0 0.8375 0 0 0 0.28 0"/>
<feBlend mode="normal" in2="BackgroundImageFix" result="effect1_dropShadow_0_25"/>
<feBlend mode="normal" in="SourceGraphic" in2="effect1_dropShadow_0_25" result="shape"/>
</filter>
<clipPath id="clip0_0_25">
<rect width="28" height="28" fill="white" transform="translate(46.7572 34.2657)"/>
</clipPath>
</defs>
</svg>
