<svg width="28" height="28" viewBox="0 0 28 28" fill="none" xmlns="http://www.w3.org/2000/svg">
<path d="M22.4665 17.39C22.3459 17.5136 22.2537 17.662 22.1965 17.825C22.1587 17.9979 22.1587 18.177 22.1965 18.35L23.0815 24.245C23.1604 24.705 23.1084 25.178 22.9315 25.61C22.7518 26.0464 22.4496 26.4215 22.0615 26.69C21.6767 26.9604 21.2256 27.1211 20.7565 27.155C20.2892 27.1741 19.8261 27.0597 19.4215 26.825L14.6365 24.17C14.4763 24.0798 14.2953 24.0333 14.1115 24.035C13.9229 24.0334 13.7371 24.0799 13.5715 24.17L8.81649 26.825C8.40207 27.047 7.93637 27.1557 7.46649 27.14C7.11863 27.1172 6.77935 27.0221 6.47036 26.8607C6.16137 26.6993 5.88946 26.4752 5.67204 26.2027C5.45461 25.9302 5.29645 25.6154 5.20768 25.2783C5.1189 24.9411 5.10147 24.5892 5.15649 24.245L6.11649 18.35C6.16161 18.1779 6.16161 17.9971 6.11649 17.825C6.07046 17.6604 5.98261 17.5105 5.86149 17.39L1.64649 13.145C1.33192 12.8129 1.10957 12.4044 1.00149 11.96C0.881666 11.518 0.881666 11.052 1.00149 10.61C1.16749 10.1743 1.44718 9.79099 1.81149 9.49998C2.16335 9.20374 2.58801 9.00694 3.04149 8.92998L8.57649 8.08998C8.7551 8.05783 8.92424 7.98607 9.07149 7.87998C9.21747 7.7686 9.33558 7.62482 9.41649 7.45998L11.8165 2.29998C12.0154 1.87007 12.3328 1.50582 12.7315 1.24998C13.1329 0.995174 13.5985 0.859863 14.074 0.859863C14.5494 0.859863 15.0151 0.995174 15.4165 1.24998C15.8152 1.50582 16.1326 1.87007 16.3315 2.29998L18.7465 7.45998C18.8226 7.62784 18.9416 7.77269 19.0915 7.87998C19.2371 7.98897 19.4069 8.06102 19.5865 8.08998L25.1215 8.92998C25.575 9.00694 25.9996 9.20374 26.3515 9.49998C26.696 9.80259 26.9546 10.1906 27.1015 10.625C27.2213 11.067 27.2213 11.533 27.1015 11.975C26.9934 12.4194 26.7711 12.8279 26.4565 13.16L22.4665 17.39Z" fill="#1B1B1D"/>
</svg>
