<svg width="121" height="121" viewBox="0 0 121 121" fill="none" xmlns="http://www.w3.org/2000/svg">
<g filter="url(#filter0_d_0_57)">
<circle cx="60.7572" cy="48.2657" r="30" fill="white"/>
</g>
<path d="M70.2985 43.2621C70.3147 43.4808 70.3147 43.6983 70.3147 43.9158C70.3147 50.5721 65.2485 58.2421 55.9897 58.2421C53.1372 58.2421 50.4872 57.4158 48.2572 55.9808C48.6622 56.0271 49.0522 56.0433 49.4735 56.0433C51.8272 56.0433 53.9935 55.2483 55.7247 53.892C53.511 53.8458 51.656 52.3958 51.016 50.4008C51.3272 50.4471 51.6397 50.4783 51.9672 50.4783C52.4185 50.4783 52.8722 50.4158 53.2935 50.3071C50.9847 49.8396 49.256 47.8133 49.256 45.3658V45.3033C49.9272 45.6771 50.706 45.9108 51.531 45.9421C50.1747 45.0396 49.286 43.4958 49.286 41.7496C49.286 40.8146 49.5347 39.9571 49.971 39.2096C52.4497 42.2633 56.176 44.2596 60.3535 44.4783C60.276 44.1033 60.2285 43.7146 60.2285 43.3246C60.2285 40.5496 62.4735 38.2896 65.2635 38.2896C66.7135 38.2896 68.0222 38.8971 68.9422 39.8796C70.0797 39.6608 71.1697 39.2396 72.1372 38.6633C71.7635 39.8321 70.9672 40.8146 69.9235 41.4383C70.9372 41.3283 71.9197 41.0483 72.8222 40.6583C72.1372 41.6558 71.281 42.5446 70.2985 43.2621Z" fill="#64646A"/>
<defs>
<filter id="filter0_d_0_57" x="0.757202" y="0.265747" width="120" height="120" filterUnits="userSpaceOnUse" color-interpolation-filters="sRGB">
<feFlood flood-opacity="0" result="BackgroundImageFix"/>
<feColorMatrix in="SourceAlpha" type="matrix" values="0 0 0 0 0 0 0 0 0 0 0 0 0 0 0 0 0 0 127 0" result="hardAlpha"/>
<feOffset dy="12"/>
<feGaussianBlur stdDeviation="15"/>
<feComposite in2="hardAlpha" operator="out"/>
<feColorMatrix type="matrix" values="0 0 0 0 0.802604 0 0 0 0 0.820052 0 0 0 0 0.8375 0 0 0 0.28 0"/>
<feBlend mode="normal" in2="BackgroundImageFix" result="effect1_dropShadow_0_57"/>
<feBlend mode="normal" in="SourceGraphic" in2="effect1_dropShadow_0_57" result="shape"/>
</filter>
</defs>
</svg>
